{"accessors":[{"bufferView":0,"byteOffset":0,"componentType":5126,"count":57,"max":[0.019,0.03397194765871144,0.007],"min":[0.012,0.02,-0.007],"type":"VEC3"},{"bufferView":0,"byteOffset":684,"componentType":5126,"count":69,"max":[0.021,0.03394896211868638,0.007],"min":[0.019,0.02005103788131362,-0.007],"type":"VEC3"},{"bufferView":0,"byteOffset":1512,"componentType":5126,"count":26,"max":[0.012,0.03397194765871144,0.007],"min":[0.012,0.02067544467966218,-0.006988196486705176],"type":"VEC3"},{"bufferView":0,"byteOffset":1824,"componentType":5126,"count":4,"max":[0.018000000000000003,0.02067544467966227,0.002999999999998892],"min":[0.012,0.015,0.002999999999997774],"type":"VEC3"},{"bufferView":0,"byteOffset":1872,"componentType":5126,"count":7,"max":[0.018000000000000003,0.02067544467966219,0.002999999999998892],"min":[0.018000000000000003,0.015,-0.002999999999998892],"type":"VEC3"},{"bufferView":0,"byteOffset":1956,"componentType":5126,"count":4,"max":[0.018000000000000003,0.02067544467966219,-0.0029999999999977659],"min":[0.012,0.015,-0.002999999999998892],"type":"VEC3"},{"bufferView":0,"byteOffset":2004,"componentType":5126,"count":26,"max":[0.021,0.030970835496392219,0.004],"min":[0.021,0.023029164503607783,-0.004],"type":"VEC3"},{"bufferView":0,"byteOffset":2316,"componentType":5126,"count":7,"max":[0.012,0.03,0.00299999999999786],"min":[0.012,0.02,-0.002999999999997774],"type":"VEC3"},{"bufferView":0,"byteOffset":2400,"componentType":5126,"count":9,"max":[0.018477590650225738,0.015,0.007653668647301792],"min":[0.011086554390135442,0.005,0.002999999999998892],"type":"VEC3"},{"bufferView":0,"byteOffset":2508,"componentType":5126,"count":7,"max":[0.012,0.02067544467966227,0.002999999999998892],"min":[0.012,0.015,-0.002999999999998892],"type":"VEC3"},{"bufferView":0,"byteOffset":2592,"componentType":5126,"count":23,"max":[0.02,0.015,0.007653668647301792],"min":[0.018000000000000003,0.005,-0.007653668647301796],"type":"VEC3"},{"bufferView":0,"byteOffset":2868,"componentType":5126,"count":7,"max":[0.018477590650225738,0.015,-0.002999999999998892],"min":[0.01108655439013544,0.005,-0.007653668647301796],"type":"VEC3"},{"bufferView":0,"byteOffset":2952,"componentType":5126,"count":36,"max":[0.018477590650225738,0.005,0.02],"min":[-0.018477590650225745,0.005,-0.02],"type":"VEC3"},{"bufferView":0,"byteOffset":3384,"componentType":5126,"count":14,"max":[0.012,0.015,0.004592201188381075],"min":[0.01108655439013544,0.005,-0.004592201188381077],"type":"VEC3"},{"bufferView":0,"byteOffset":3552,"componentType":5126,"count":68,"max":[0.02,0.005,0.02],"min":[-0.02,0.0,-0.02],"type":"VEC3"},{"bufferView":0,"byteOffset":4368,"componentType":5126,"count":7,"max":[-0.011086554390135447,0.015,0.007653668647301803],"min":[-0.018477590650225745,0.005,0.0029999999999988874],"type":"VEC3"},{"bufferView":0,"byteOffset":4452,"componentType":5126,"count":14,"max":[-0.011086554390135447,0.015,0.004592201188381081],"min":[-0.012,0.005,-0.0045922011883810808],"type":"VEC3"},{"bufferView":0,"byteOffset":4620,"componentType":5126,"count":9,"max":[-0.011086554390135447,0.015,-0.0029999999999988874],"min":[-0.018477590650225738,0.005,-0.007653668647301801],"type":"VEC3"},{"bufferView":0,"byteOffset":4728,"componentType":5126,"count":19,"max":[-0.018000000000000003,0.015,0.007653668647301803],"min":[-0.02,0.005,-0.007653668647301801],"type":"VEC3"},{"bufferView":0,"byteOffset":4956,"componentType":5126,"count":32,"max":[0.02,0.0,0.02],"min":[-0.02,0.0,-0.02],"type":"VEC3"},{"bufferView":0,"byteOffset":5340,"componentType":5126,"count":4,"max":[-0.012,0.02067544467966219,0.0029999999999988874],"min":[-0.018000000000000003,0.015,0.0029999999999977659],"type":"VEC3"},{"bufferView":0,"byteOffset":5388,"componentType":5126,"count":7,"max":[-0.012,0.02067544467966227,0.0029999999999988874],"min":[-0.012,0.015,-0.0029999999999988874],"type":"VEC3"},{"bufferView":0,"byteOffset":5472,"componentType":5126,"count":4,"max":[-0.012,0.02067544467966227,-0.002999999999997774],"min":[-0.018000000000000003,0.015,-0.0029999999999988874],"type":"VEC3"},{"bufferView":0,"byteOffset":5520,"componentType":5126,"count":7,"max":[-0.018000000000000003,0.02067544467966219,0.0029999999999988874],"min":[-0.018000000000000003,0.015,-0.0029999999999988874],"type":"VEC3"},{"bufferView":0,"byteOffset":5604,"componentType":5126,"count":57,"max":[-0.012,0.03397194765871144,0.007],"min":[-0.019,0.02,-0.007],"type":"VEC3"},{"bufferView":0,"byteOffset":6288,"componentType":5126,"count":7,"max":[-0.012,0.03,0.002999999999997774],"min":[-0.012,0.02,-0.00299999999999786],"type":"VEC3"},{"bufferView":0,"byteOffset":6372,"componentType":5126,"count":69,"max":[-0.019,0.03394896211868638,0.007],"min":[-0.021,0.02005103788131362,-0.007],"type":"VEC3"},{"bufferView":0,"byteOffset":7200,"componentType":5126,"count":26,"max":[-0.012,0.03397194765871144,0.006988196486705176],"min":[-0.012,0.02067544467966218,-0.007],"type":"VEC3"},{"bufferView":0,"byteOffset":7512,"componentType":5126,"count":26,"max":[-0.021,0.030970835496392219,0.004],"min":[-0.021,0.023029164503607783,-0.004],"type":"VEC3"},{"bufferView":1,"byteOffset":0,"componentType":5126,"count":57,"type":"VEC3"},{"bufferView":1,"byteOffset":684,"componentType":5126,"count":69,"type":"VEC3"},{"bufferView":1,"byteOffset":1512,"componentType":5126,"count":26,"type":"VEC3"},{"bufferView":1,"byteOffset":1824,"componentType":5126,"count":4,"type":"VEC3"},{"bufferView":1,"byteOffset":1872,"componentType":5126,"count":7,"type":"VEC3"},{"bufferView":1,"byteOffset":1956,"componentType":5126,"count":4,"type":"VEC3"},{"bufferView":1,"byteOffset":2004,"componentType":5126,"count":26,"type":"VEC3"},{"bufferView":1,"byteOffset":2316,"componentType":5126,"count":7,"type":"VEC3"},{"bufferView":1,"byteOffset":2400,"componentType":5126,"count":9,"type":"VEC3"},{"bufferView":1,"byteOffset":2508,"componentType":5126,"count":7,"type":"VEC3"},{"bufferView":1,"byteOffset":2592,"componentType":5126,"count":23,"type":"VEC3"},{"bufferView":1,"byteOffset":2868,"componentType":5126,"count":7,"type":"VEC3"},{"bufferView":1,"byteOffset":2952,"componentType":5126,"count":36,"type":"VEC3"},{"bufferView":1,"byteOffset":3384,"componentType":5126,"count":14,"type":"VEC3"},{"bufferView":1,"byteOffset":3552,"componentType":5126,"count":68,"type":"VEC3"},{"bufferView":1,"byteOffset":4368,"componentType":5126,"count":7,"type":"VEC3"},{"bufferView":1,"byteOffset":4452,"componentType":5126,"count":14,"type":"VEC3"},{"bufferView":1,"byteOffset":4620,"componentType":5126,"count":9,"type":"VEC3"},{"bufferView":1,"byteOffset":4728,"componentType":5126,"count":19,"type":"VEC3"},{"bufferView":1,"byteOffset":4956,"componentType":5126,"count":32,"type":"VEC3"},{"bufferView":1,"byteOffset":5340,"componentType":5126,"count":4,"type":"VEC3"},{"bufferView":1,"byteOffset":5388,"componentType":5126,"count":7,"type":"VEC3"},{"bufferView":1,"byteOffset":5472,"componentType":5126,"count":4,"type":"VEC3"},{"bufferView":1,"byteOffset":5520,"componentType":5126,"count":7,"type":"VEC3"},{"bufferView":1,"byteOffset":5604,"componentType":5126,"count":57,"type":"VEC3"},{"bufferView":1,"byteOffset":6288,"componentType":5126,"count":7,"type":"VEC3"},{"bufferView":1,"byteOffset":6372,"componentType":5126,"count":69,"type":"VEC3"},{"bufferView":1,"byteOffset":7200,"componentType":5126,"count":26,"type":"VEC3"},{"bufferView":1,"byteOffset":7512,"componentType":5126,"count":26,"type":"VEC3"},{"bufferView":2,"byteOffset":0,"componentType":5123,"count":165,"type":"SCALAR"},{"bufferView":2,"byteOffset":332,"componentType":5123,"count":240,"type":"SCALAR"},{"bufferView":2,"byteOffset":812,"componentType":5123,"count":72,"type":"SCALAR"},{"bufferView":2,"byteOffset":956,"componentType":5123,"count":6,"type":"SCALAR"},{"bufferView":2,"byteOffset":968,"componentType":5123,"count":15,"type":"SCALAR"},{"bufferView":2,"byteOffset":1000,"componentType":5123,"count":6,"type":"SCALAR"},{"bufferView":2,"byteOffset":1012,"componentType":5123,"count":72,"type":"SCALAR"},{"bufferView":2,"byteOffset":1156,"componentType":5123,"count":15,"type":"SCALAR"},{"bufferView":2,"byteOffset":1188,"componentType":5123,"count":36,"type":"SCALAR"},{"bufferView":2,"byteOffset":1260,"componentType":5123,"count":15,"type":"SCALAR"},{"bufferView":2,"byteOffset":1292,"componentType":5123,"count":105,"type":"SCALAR"},{"bufferView":2,"byteOffset":1504,"componentType":5123,"count":24,"type":"SCALAR"},{"bufferView":2,"byteOffset":1552,"componentType":5123,"count":102,"type":"SCALAR"},{"bufferView":2,"byteOffset":1756,"componentType":5123,"count":57,"type":"SCALAR"},{"bufferView":2,"byteOffset":1872,"componentType":5123,"count":198,"type":"SCALAR"},{"bufferView":2,"byteOffset":2268,"componentType":5123,"count":24,"type":"SCALAR"},{"bufferView":2,"byteOffset":2316,"componentType":5123,"count":57,"type":"SCALAR"},{"bufferView":2,"byteOffset":2432,"componentType":5123,"count":36,"type":"SCALAR"},{"bufferView":2,"byteOffset":2504,"componentType":5123,"count":87,"type":"SCALAR"},{"bufferView":2,"byteOffset":2680,"componentType":5123,"count":90,"type":"SCALAR"},{"bufferView":2,"byteOffset":2860,"componentType":5123,"count":6,"type":"SCALAR"},{"bufferView":2,"byteOffset":2872,"componentType":5123,"count":15,"type":"SCALAR"},{"bufferView":2,"byteOffset":2904,"componentType":5123,"count":6,"type":"SCALAR"},{"bufferView":2,"byteOffset":2916,"componentType":5123,"count":15,"type":"SCALAR"},{"bufferView":2,"byteOffset":2948,"componentType":5123,"count":165,"type":"SCALAR"},{"bufferView":2,"byteOffset":3280,"componentType":5123,"count":15,"type":"SCALAR"},{"bufferView":2,"byteOffset":3312,"componentType":5123,"count":240,"type":"SCALAR"},{"bufferView":2,"byteOffset":3792,"componentType":5123,"count":72,"type":"SCALAR"},{"bufferView":2,"byteOffset":3936,"componentType":5123,"count":72,"type":"SCALAR"}],"asset":{"generator":"Open CASCADE Technology 7.6 [dev.opencascade.org]","version":"2.0"},"bufferViews":[{"buffer":0,"byteLength":7824,"byteOffset":0,"byteStride":12,"target":34962},{"buffer":0,"byteLength":7824,"byteOffset":7824,"byteStride":12,"target":34962},{"buffer":0,"byteLength":4080,"byteOffset":15648,"target":34963}],"buffers":[{"byteLength":19728,"uri":"cutemark-Base.bin"}],"materials":[{"name":"mat_0","pbrMetallicRoughness":{"baseColorFactor":[0.0,0.4019778072834015,0.0,1.0]},"doubleSided":true}],"meshes":[{"name":"Base","primitives":[{"attributes":{"NORMAL":29,"POSITION":0},"indices":58,"material":0,"mode":4},{"attributes":{"NORMAL":30,"POSITION":1},"indices":59,"material":0,"mode":4},{"attributes":{"NORMAL":31,"POSITION":2},"indices":60,"material":0,"mode":4},{"attributes":{"NORMAL":32,"POSITION":3},"indices":61,"material":0,"mode":4},{"attributes":{"NORMAL":33,"POSITION":4},"indices":62,"material":0,"mode":4},{"attributes":{"NORMAL":34,"POSITION":5},"indices":63,"material":0,"mode":4},{"attributes":{"NORMAL":35,"POSITION":6},"indices":64,"material":0,"mode":4},{"attributes":{"NORMAL":36,"POSITION":7},"indices":65,"material":0,"mode":4},{"attributes":{"NORMAL":37,"POSITION":8},"indices":66,"material":0,"mode":4},{"attributes":{"NORMAL":38,"POSITION":9},"indices":67,"material":0,"mode":4},{"attributes":{"NORMAL":39,"POSITION":10},"indices":68,"material":0,"mode":4},{"attributes":{"NORMAL":40,"POSITION":11},"indices":69,"material":0,"mode":4},{"attributes":{"NORMAL":41,"POSITION":12},"indices":70,"material":0,"mode":4},{"attributes":{"NORMAL":42,"POSITION":13},"indices":71,"material":0,"mode":4},{"attributes":{"NORMAL":43,"POSITION":14},"indices":72,"material":0,"mode":4},{"attributes":{"NORMAL":44,"POSITION":15},"indices":73,"material":0,"mode":4},{"attributes":{"NORMAL":45,"POSITION":16},"indices":74,"material":0,"mode":4},{"attributes":{"NORMAL":46,"POSITION":17},"indices":75,"material":0,"mode":4},{"attributes":{"NORMAL":47,"POSITION":18},"indices":76,"material":0,"mode":4},{"attributes":{"NORMAL":48,"POSITION":19},"indices":77,"material":0,"mode":4},{"attributes":{"NORMAL":49,"POSITION":20},"indices":78,"material":0,"mode":4},{"attributes":{"NORMAL":50,"POSITION":21},"indices":79,"material":0,"mode":4},{"attributes":{"NORMAL":51,"POSITION":22},"indices":80,"material":0,"mode":4},{"attributes":{"NORMAL":52,"POSITION":23},"indices":81,"material":0,"mode":4},{"attributes":{"NORMAL":53,"POSITION":24},"indices":82,"material":0,"mode":4},{"attributes":{"NORMAL":54,"POSITION":25},"indices":83,"material":0,"mode":4},{"attributes":{"NORMAL":55,"POSITION":26},"indices":84,"material":0,"mode":4},{"attributes":{"NORMAL":56,"POSITION":27},"indices":85,"material":0,"mode":4},{"attributes":{"NORMAL":57,"POSITION":28},"indices":86,"material":0,"mode":4}]}],"nodes":[{"mesh":0,"name":"Base"}],"scene":0,"scenes":[{"nodes":[0]}]}