{"accessors":[{"bufferView":0,"byteOffset":0,"componentType":5126,"count":4,"max":[0.010999999999999996,0.03400000000000038,0.016999999999999943],"min":[0.010999999999999995,0.020000000000000349,-7.460698725481053e-17],"type":"VEC3"},{"bufferView":0,"byteOffset":48,"componentType":5126,"count":4,"max":[0.010999999999999996,0.03800000000000038,0.016999999999999916],"min":[0.006999999999999996,0.034000000000000338,-8.348877145181177e-17],"type":"VEC3"},{"bufferView":0,"byteOffset":96,"componentType":5126,"count":18,"max":[0.010999999999999996,0.03400000000000038,0.02199999999999994],"min":[0.005999999999999996,0.020000000000000387,0.016999999999999916],"type":"VEC3"},{"bufferView":0,"byteOffset":312,"componentType":5126,"count":72,"max":[0.010999999999999996,0.03800000000000033,-2.3092638912203259e-17],"min":[-0.010999999999999996,0.016000000000000349,-8.348877145181177e-17],"type":"VEC3"},{"bufferView":0,"byteOffset":1176,"componentType":5126,"count":4,"max":[0.010999999999999996,0.020000000000000387,0.016999999999999954],"min":[0.0069999999999999979,0.016000000000000349,-4.4408920985006267e-17],"type":"VEC3"},{"bufferView":0,"byteOffset":1224,"componentType":5126,"count":8,"max":[0.0069999999999999979,0.03800000000000038,0.016999999999999909],"min":[-0.0069999999999999979,0.038000000000000328,-8.348877145181177e-17],"type":"VEC3"},{"bufferView":0,"byteOffset":1320,"componentType":5126,"count":18,"max":[0.010999999999999995,0.03800000000000038,0.02199999999999992],"min":[0.004928932188134523,0.03192893218813491,0.016999999999999909],"type":"VEC3"},{"bufferView":0,"byteOffset":1536,"componentType":5126,"count":8,"max":[0.0059999999999999979,0.03300000000000038,0.021999999999999944],"min":[-0.0059999999999999979,0.021000000000000395,0.02199999999999992],"type":"VEC3"},{"bufferView":0,"byteOffset":1632,"componentType":5126,"count":18,"max":[0.010999999999999996,0.022071067811865874,0.021999999999999944],"min":[0.00492893218813452,0.01600000000000039,0.016999999999999943],"type":"VEC3"},{"bufferView":0,"byteOffset":1848,"componentType":5126,"count":37,"max":[0.004628084782421985,0.04300000000000034,-4.4408920985006267e-17],"min":[-0.004628084782421985,0.038000000000000287,-9.592326932761353e-17],"type":"VEC3"},{"bufferView":0,"byteOffset":2292,"componentType":5126,"count":55,"max":[0.002499999999999999,0.04174585471514936,-4.4408920985006267e-17],"min":[-0.0024999999999999998,0.0367758814764824,-0.002000000000000078],"type":"VEC3"},{"bufferView":0,"byteOffset":2952,"componentType":5126,"count":4,"max":[-0.006999999999999996,0.03800000000000038,0.016999999999999919],"min":[-0.010999999999999996,0.034000000000000338,-8.348877145181177e-17],"type":"VEC3"},{"bufferView":0,"byteOffset":3000,"componentType":5126,"count":4,"max":[-0.010999999999999996,0.03400000000000038,0.016999999999999943],"min":[-0.010999999999999996,0.020000000000000349,-7.460698725481053e-17],"type":"VEC3"},{"bufferView":0,"byteOffset":3048,"componentType":5126,"count":4,"max":[-0.006999999999999995,0.02000000000000039,0.016999999999999954],"min":[-0.010999999999999996,0.016000000000000349,-4.4408920985006267e-17],"type":"VEC3"},{"bufferView":0,"byteOffset":3096,"componentType":5126,"count":4,"max":[0.0069999999999999979,0.01600000000000039,0.016999999999999954],"min":[-0.0069999999999999979,0.016000000000000349,-3.552713678800501e-17],"type":"VEC3"},{"bufferView":0,"byteOffset":3144,"componentType":5126,"count":54,"max":[0.003499999999999999,0.02547448105934354,-2.3092638912203259e-17],"min":[-0.0034999999999999998,0.018525518940657159,-0.0020000000000000444],"type":"VEC3"},{"bufferView":0,"byteOffset":3792,"componentType":5126,"count":54,"max":[0.003499999999999999,0.035474481059343528,-3.552713678800501e-17],"min":[-0.0034999999999999998,0.028525518940657143,-0.002000000000000064],"type":"VEC3"},{"bufferView":0,"byteOffset":4440,"componentType":5126,"count":18,"max":[0.006999999999999996,0.03800000000000038,0.02199999999999992],"min":[-0.006999999999999996,0.03300000000000038,0.016999999999999909],"type":"VEC3"},{"bufferView":0,"byteOffset":4656,"componentType":5126,"count":4,"max":[-0.004628084782421984,0.03900000000000035,0.012262793999999909],"min":[-0.004628084782421985,0.038000000000000328,-8.704148513061228e-17],"type":"VEC3"},{"bufferView":0,"byteOffset":4704,"componentType":5126,"count":18,"max":[0.004628084782421985,0.043000000000000367,0.012262793999999952],"min":[-0.004628084782421985,0.038000000000000349,0.012262793999999898],"type":"VEC3"},{"bufferView":0,"byteOffset":4920,"componentType":5126,"count":4,"max":[0.004628084782421985,0.03900000000000036,0.012262793999999909],"min":[0.004628084782421984,0.038000000000000328,-8.704148513061228e-17],"type":"VEC3"},{"bufferView":0,"byteOffset":4968,"componentType":5126,"count":18,"max":[-0.004928932188134534,0.03800000000000038,0.021999999999999924],"min":[-0.010999999999999996,0.03192893218813492,0.016999999999999909],"type":"VEC3"},{"bufferView":0,"byteOffset":5184,"componentType":5126,"count":18,"max":[-0.0059999999999999979,0.03400000000000038,0.02199999999999994],"min":[-0.010999999999999996,0.02000000000000039,0.016999999999999919],"type":"VEC3"},{"bufferView":0,"byteOffset":5400,"componentType":5126,"count":18,"max":[-0.004928932188134521,0.022071067811865874,0.021999999999999944],"min":[-0.010999999999999996,0.016000000000000387,0.016999999999999943],"type":"VEC3"},{"bufferView":0,"byteOffset":5616,"componentType":5126,"count":18,"max":[0.0069999999999999979,0.021000000000000395,0.021999999999999944],"min":[-0.006999999999999995,0.016000000000000387,0.016999999999999954],"type":"VEC3"},{"bufferView":0,"byteOffset":5832,"componentType":5126,"count":16,"max":[0.004628084782421985,0.043000000000000367,0.012262793999999952],"min":[0.000628084782421988,0.03900000000000033,-9.592326932761353e-17],"type":"VEC3"},{"bufferView":0,"byteOffset":6024,"componentType":5126,"count":4,"max":[0.000628084782421988,0.043000000000000367,0.0122627939999999],"min":[-0.000628084782421988,0.04300000000000032,-9.592326932761353e-17],"type":"VEC3"},{"bufferView":0,"byteOffset":6072,"componentType":5126,"count":16,"max":[-0.000628084782421988,0.04300000000000035,0.012262793999999952],"min":[-0.004628084782421985,0.03900000000000032,-9.592326932761353e-17],"type":"VEC3"},{"bufferView":0,"byteOffset":6264,"componentType":5126,"count":52,"max":[0.002499999999999999,0.04174088518524512,-0.002000000000000043],"min":[-0.0024999999999999998,0.03677734081475485,-0.0020000000000000787],"type":"VEC3"},{"bufferView":0,"byteOffset":6888,"componentType":5126,"count":52,"max":[0.003499999999999999,0.025474481059343538,-0.0020000000000000219],"min":[-0.0034999999999999998,0.018525518940657159,-0.0020000000000000449],"type":"VEC3"},{"bufferView":0,"byteOffset":7512,"componentType":5126,"count":52,"max":[0.003499999999999999,0.035474481059343528,-0.0020000000000000345],"min":[-0.0034999999999999998,0.028525518940657143,-0.0020000000000000644],"type":"VEC3"},{"bufferView":0,"byteOffset":8136,"componentType":5126,"count":55,"max":[0.0019999999999999989,0.04124880333292748,-4.6185277824406519e-17],"min":[-0.0019999999999999998,0.03725911299999999,-0.002000000000000078],"type":"VEC3"},{"bufferView":0,"byteOffset":8796,"componentType":5126,"count":54,"max":[0.002999999999999999,0.024978126622294516,-2.3092638912203259e-17],"min":[-0.002999999999999999,0.019021873377706185,-0.0020000000000000444],"type":"VEC3"},{"bufferView":0,"byteOffset":9444,"componentType":5126,"count":54,"max":[0.002999999999999999,0.034978126622294509,-3.552713678800501e-17],"min":[-0.002999999999999999,0.02902187337770617,-0.002000000000000064],"type":"VEC3"},{"bufferView":0,"byteOffset":10092,"componentType":5126,"count":55,"max":[0.0019999999999999989,0.04124880333292748,0.00999999999999995],"min":[-0.0019999999999999998,0.03725911299999999,-8.348877145181177e-17],"type":"VEC3"},{"bufferView":0,"byteOffset":10752,"componentType":5126,"count":54,"max":[0.002999999999999999,0.024978126622294526,0.009999999999999973],"min":[-0.002999999999999999,0.01902187337770619,-4.6185277824406519e-17],"type":"VEC3"},{"bufferView":0,"byteOffset":11400,"componentType":5126,"count":54,"max":[0.002999999999999999,0.03497812662229451,0.009999999999999959],"min":[-0.002999999999999999,0.02902187337770618,-6.572520305780927e-17],"type":"VEC3"},{"bufferView":0,"byteOffset":12048,"componentType":5126,"count":26,"max":[0.0019999999999999989,0.04124453074819611,0.00999999999999995],"min":[-0.0019999999999999998,0.0372736952518039,0.00999999999999991],"type":"VEC3"},{"bufferView":0,"byteOffset":12360,"componentType":5126,"count":26,"max":[0.002999999999999999,0.024978126622294526,0.009999999999999973],"min":[-0.002999999999999999,0.019021873377706206,0.009999999999999947],"type":"VEC3"},{"bufferView":0,"byteOffset":12672,"componentType":5126,"count":26,"max":[0.002999999999999999,0.03497812662229451,0.009999999999999959],"min":[-0.002999999999999999,0.02902187337770619,0.009999999999999926],"type":"VEC3"},{"bufferView":1,"byteOffset":0,"componentType":5126,"count":4,"type":"VEC3"},{"bufferView":1,"byteOffset":48,"componentType":5126,"count":4,"type":"VEC3"},{"bufferView":1,"byteOffset":96,"componentType":5126,"count":18,"type":"VEC3"},{"bufferView":1,"byteOffset":312,"componentType":5126,"count":72,"type":"VEC3"},{"bufferView":1,"byteOffset":1176,"componentType":5126,"count":4,"type":"VEC3"},{"bufferView":1,"byteOffset":1224,"componentType":5126,"count":8,"type":"VEC3"},{"bufferView":1,"byteOffset":1320,"componentType":5126,"count":18,"type":"VEC3"},{"bufferView":1,"byteOffset":1536,"componentType":5126,"count":8,"type":"VEC3"},{"bufferView":1,"byteOffset":1632,"componentType":5126,"count":18,"type":"VEC3"},{"bufferView":1,"byteOffset":1848,"componentType":5126,"count":37,"type":"VEC3"},{"bufferView":1,"byteOffset":2292,"componentType":5126,"count":55,"type":"VEC3"},{"bufferView":1,"byteOffset":2952,"componentType":5126,"count":4,"type":"VEC3"},{"bufferView":1,"byteOffset":3000,"componentType":5126,"count":4,"type":"VEC3"},{"bufferView":1,"byteOffset":3048,"componentType":5126,"count":4,"type":"VEC3"},{"bufferView":1,"byteOffset":3096,"componentType":5126,"count":4,"type":"VEC3"},{"bufferView":1,"byteOffset":3144,"componentType":5126,"count":54,"type":"VEC3"},{"bufferView":1,"byteOffset":3792,"componentType":5126,"count":54,"type":"VEC3"},{"bufferView":1,"byteOffset":4440,"componentType":5126,"count":18,"type":"VEC3"},{"bufferView":1,"byteOffset":4656,"componentType":5126,"count":4,"type":"VEC3"},{"bufferView":1,"byteOffset":4704,"componentType":5126,"count":18,"type":"VEC3"},{"bufferView":1,"byteOffset":4920,"componentType":5126,"count":4,"type":"VEC3"},{"bufferView":1,"byteOffset":4968,"componentType":5126,"count":18,"type":"VEC3"},{"bufferView":1,"byteOffset":5184,"componentType":5126,"count":18,"type":"VEC3"},{"bufferView":1,"byteOffset":5400,"componentType":5126,"count":18,"type":"VEC3"},{"bufferView":1,"byteOffset":5616,"componentType":5126,"count":18,"type":"VEC3"},{"bufferView":1,"byteOffset":5832,"componentType":5126,"count":16,"type":"VEC3"},{"bufferView":1,"byteOffset":6024,"componentType":5126,"count":4,"type":"VEC3"},{"bufferView":1,"byteOffset":6072,"componentType":5126,"count":16,"type":"VEC3"},{"bufferView":1,"byteOffset":6264,"componentType":5126,"count":52,"type":"VEC3"},{"bufferView":1,"byteOffset":6888,"componentType":5126,"count":52,"type":"VEC3"},{"bufferView":1,"byteOffset":7512,"componentType":5126,"count":52,"type":"VEC3"},{"bufferView":1,"byteOffset":8136,"componentType":5126,"count":55,"type":"VEC3"},{"bufferView":1,"byteOffset":8796,"componentType":5126,"count":54,"type":"VEC3"},{"bufferView":1,"byteOffset":9444,"componentType":5126,"count":54,"type":"VEC3"},{"bufferView":1,"byteOffset":10092,"componentType":5126,"count":55,"type":"VEC3"},{"bufferView":1,"byteOffset":10752,"componentType":5126,"count":54,"type":"VEC3"},{"bufferView":1,"byteOffset":11400,"componentType":5126,"count":54,"type":"VEC3"},{"bufferView":1,"byteOffset":12048,"componentType":5126,"count":26,"type":"VEC3"},{"bufferView":1,"byteOffset":12360,"componentType":5126,"count":26,"type":"VEC3"},{"bufferView":1,"byteOffset":12672,"componentType":5126,"count":26,"type":"VEC3"},{"bufferView":2,"byteOffset":0,"componentType":5123,"count":6,"type":"SCALAR"},{"bufferView":2,"byteOffset":12,"componentType":5123,"count":6,"type":"SCALAR"},{"bufferView":2,"byteOffset":24,"componentType":5123,"count":48,"type":"SCALAR"},{"bufferView":2,"byteOffset":120,"componentType":5123,"count":222,"type":"SCALAR"},{"bufferView":2,"byteOffset":564,"componentType":5123,"count":6,"type":"SCALAR"},{"bufferView":2,"byteOffset":576,"componentType":5123,"count":18,"type":"SCALAR"},{"bufferView":2,"byteOffset":612,"componentType":5123,"count":48,"type":"SCALAR"},{"bufferView":2,"byteOffset":708,"componentType":5123,"count":18,"type":"SCALAR"},{"bufferView":2,"byteOffset":744,"componentType":5123,"count":48,"type":"SCALAR"},{"bufferView":2,"byteOffset":840,"componentType":5123,"count":105,"type":"SCALAR"},{"bufferView":2,"byteOffset":1052,"componentType":5123,"count":159,"type":"SCALAR"},{"bufferView":2,"byteOffset":1372,"componentType":5123,"count":6,"type":"SCALAR"},{"bufferView":2,"byteOffset":1384,"componentType":5123,"count":6,"type":"SCALAR"},{"bufferView":2,"byteOffset":1396,"componentType":5123,"count":6,"type":"SCALAR"},{"bufferView":2,"byteOffset":1408,"componentType":5123,"count":6,"type":"SCALAR"},{"bufferView":2,"byteOffset":1420,"componentType":5123,"count":156,"type":"SCALAR"},{"bufferView":2,"byteOffset":1732,"componentType":5123,"count":156,"type":"SCALAR"},{"bufferView":2,"byteOffset":2044,"componentType":5123,"count":48,"type":"SCALAR"},{"bufferView":2,"byteOffset":2140,"componentType":5123,"count":6,"type":"SCALAR"},{"bufferView":2,"byteOffset":2152,"componentType":5123,"count":48,"type":"SCALAR"},{"bufferView":2,"byteOffset":2248,"componentType":5123,"count":6,"type":"SCALAR"},{"bufferView":2,"byteOffset":2260,"componentType":5123,"count":48,"type":"SCALAR"},{"bufferView":2,"byteOffset":2356,"componentType":5123,"count":48,"type":"SCALAR"},{"bufferView":2,"byteOffset":2452,"componentType":5123,"count":48,"type":"SCALAR"},{"bufferView":2,"byteOffset":2548,"componentType":5123,"count":48,"type":"SCALAR"},{"bufferView":2,"byteOffset":2644,"componentType":5123,"count":42,"type":"SCALAR"},{"bufferView":2,"byteOffset":2728,"componentType":5123,"count":6,"type":"SCALAR"},{"bufferView":2,"byteOffset":2740,"componentType":5123,"count":42,"type":"SCALAR"},{"bufferView":2,"byteOffset":2824,"componentType":5123,"count":156,"type":"SCALAR"},{"bufferView":2,"byteOffset":3136,"componentType":5123,"count":156,"type":"SCALAR"},{"bufferView":2,"byteOffset":3448,"componentType":5123,"count":156,"type":"SCALAR"},{"bufferView":2,"byteOffset":3760,"componentType":5123,"count":159,"type":"SCALAR"},{"bufferView":2,"byteOffset":4080,"componentType":5123,"count":156,"type":"SCALAR"},{"bufferView":2,"byteOffset":4392,"componentType":5123,"count":156,"type":"SCALAR"},{"bufferView":2,"byteOffset":4704,"componentType":5123,"count":159,"type":"SCALAR"},{"bufferView":2,"byteOffset":5024,"componentType":5123,"count":156,"type":"SCALAR"},{"bufferView":2,"byteOffset":5336,"componentType":5123,"count":156,"type":"SCALAR"},{"bufferView":2,"byteOffset":5648,"componentType":5123,"count":72,"type":"SCALAR"},{"bufferView":2,"byteOffset":5792,"componentType":5123,"count":72,"type":"SCALAR"},{"bufferView":2,"byteOffset":5936,"componentType":5123,"count":72,"type":"SCALAR"}],"asset":{"generator":"Open CASCADE Technology 7.6 [dev.opencascade.org]","version":"2.0"},"bufferViews":[{"buffer":0,"byteLength":12984,"byteOffset":0,"byteStride":12,"target":34962},{"buffer":0,"byteLength":12984,"byteOffset":12984,"byteStride":12,"target":34962},{"buffer":0,"byteLength":6080,"byteOffset":25968,"target":34963}],"buffers":[{"byteLength":32048,"uri":"cutemark-Head.bin"}],"materials":[{"name":"mat_0","pbrMetallicRoughness":{"baseColorFactor":[0.0,0.4019778072834015,0.0,1.0]},"doubleSided":true}],"meshes":[{"name":"Head","primitives":[{"attributes":{"NORMAL":40,"POSITION":0},"indices":80,"material":0,"mode":4},{"attributes":{"NORMAL":41,"POSITION":1},"indices":81,"material":0,"mode":4},{"attributes":{"NORMAL":42,"POSITION":2},"indices":82,"material":0,"mode":4},{"attributes":{"NORMAL":43,"POSITION":3},"indices":83,"material":0,"mode":4},{"attributes":{"NORMAL":44,"POSITION":4},"indices":84,"material":0,"mode":4},{"attributes":{"NORMAL":45,"POSITION":5},"indices":85,"material":0,"mode":4},{"attributes":{"NORMAL":46,"POSITION":6},"indices":86,"material":0,"mode":4},{"attributes":{"NORMAL":47,"POSITION":7},"indices":87,"material":0,"mode":4},{"attributes":{"NORMAL":48,"POSITION":8},"indices":88,"material":0,"mode":4},{"attributes":{"NORMAL":49,"POSITION":9},"indices":89,"material":0,"mode":4},{"attributes":{"NORMAL":50,"POSITION":10},"indices":90,"material":0,"mode":4},{"attributes":{"NORMAL":51,"POSITION":11},"indices":91,"material":0,"mode":4},{"attributes":{"NORMAL":52,"POSITION":12},"indices":92,"material":0,"mode":4},{"attributes":{"NORMAL":53,"POSITION":13},"indices":93,"material":0,"mode":4},{"attributes":{"NORMAL":54,"POSITION":14},"indices":94,"material":0,"mode":4},{"attributes":{"NORMAL":55,"POSITION":15},"indices":95,"material":0,"mode":4},{"attributes":{"NORMAL":56,"POSITION":16},"indices":96,"material":0,"mode":4},{"attributes":{"NORMAL":57,"POSITION":17},"indices":97,"material":0,"mode":4},{"attributes":{"NORMAL":58,"POSITION":18},"indices":98,"material":0,"mode":4},{"attributes":{"NORMAL":59,"POSITION":19},"indices":99,"material":0,"mode":4},{"attributes":{"NORMAL":60,"POSITION":20},"indices":100,"material":0,"mode":4},{"attributes":{"NORMAL":61,"POSITION":21},"indices":101,"material":0,"mode":4},{"attributes":{"NORMAL":62,"POSITION":22},"indices":102,"material":0,"mode":4},{"attributes":{"NORMAL":63,"POSITION":23},"indices":103,"material":0,"mode":4},{"attributes":{"NORMAL":64,"POSITION":24},"indices":104,"material":0,"mode":4},{"attributes":{"NORMAL":65,"POSITION":25},"indices":105,"material":0,"mode":4},{"attributes":{"NORMAL":66,"POSITION":26},"indices":106,"material":0,"mode":4},{"attributes":{"NORMAL":67,"POSITION":27},"indices":107,"material":0,"mode":4},{"attributes":{"NORMAL":68,"POSITION":28},"indices":108,"material":0,"mode":4},{"attributes":{"NORMAL":69,"POSITION":29},"indices":109,"material":0,"mode":4},{"attributes":{"NORMAL":70,"POSITION":30},"indices":110,"material":0,"mode":4},{"attributes":{"NORMAL":71,"POSITION":31},"indices":111,"material":0,"mode":4},{"attributes":{"NORMAL":72,"POSITION":32},"indices":112,"material":0,"mode":4},{"attributes":{"NORMAL":73,"POSITION":33},"indices":113,"material":0,"mode":4},{"attributes":{"NORMAL":74,"POSITION":34},"indices":114,"material":0,"mode":4},{"attributes":{"NORMAL":75,"POSITION":35},"indices":115,"material":0,"mode":4},{"attributes":{"NORMAL":76,"POSITION":36},"indices":116,"material":0,"mode":4},{"attributes":{"NORMAL":77,"POSITION":37},"indices":117,"material":0,"mode":4},{"attributes":{"NORMAL":78,"POSITION":38},"indices":118,"material":0,"mode":4},{"attributes":{"NORMAL":79,"POSITION":39},"indices":119,"material":0,"mode":4}]}],"nodes":[{"mesh":0,"name":"Head"}],"scene":0,"scenes":[{"nodes":[0]}]}