{"accessors":[{"bufferView":0,"byteOffset":0,"componentType":5126,"count":4,"max":[0.011000000000000005,0.0340000000000004,0.0070000000000000109],"min":[0.010999999999999998,0.020000000000000415,-0.009999999999999994],"type":"VEC3"},{"bufferView":0,"byteOffset":48,"componentType":5126,"count":4,"max":[0.011000000000000005,0.0380000000000004,0.0070000000000000109],"min":[0.006999999999999998,0.0340000000000004,-0.009999999999999994],"type":"VEC3"},{"bufferView":0,"byteOffset":96,"componentType":5126,"count":18,"max":[0.011000000000000005,0.0340000000000004,0.01200000000000001],"min":[0.006000000000000001,0.020000000000000415,0.007000000000000005],"type":"VEC3"},{"bufferView":0,"byteOffset":312,"componentType":5126,"count":72,"max":[0.011000000000000003,0.0380000000000004,-0.009999999999999994],"min":[-0.011000000000000003,0.016000000000000418,-0.009999999999999997],"type":"VEC3"},{"bufferView":0,"byteOffset":1176,"componentType":5126,"count":4,"max":[0.011,0.020000000000000418,0.007000000000000006],"min":[0.006999999999999998,0.016000000000000414,-0.009999999999999997],"type":"VEC3"},{"bufferView":0,"byteOffset":1224,"componentType":5126,"count":8,"max":[0.007,0.0380000000000004,0.00700000000000001],"min":[-0.007,0.0380000000000004,-0.009999999999999994],"type":"VEC3"},{"bufferView":0,"byteOffset":1320,"componentType":5126,"count":18,"max":[0.011000000000000005,0.0380000000000004,0.01200000000000001],"min":[0.004928932188134527,0.03192893218813492,0.00700000000000001],"type":"VEC3"},{"bufferView":0,"byteOffset":1536,"componentType":5126,"count":8,"max":[0.006000000000000002,0.0330000000000004,0.01200000000000001],"min":[-0.006000000000000001,0.02100000000000041,0.012000000000000006],"type":"VEC3"},{"bufferView":0,"byteOffset":1632,"componentType":5126,"count":18,"max":[0.011,0.022071067811865885,0.012000000000000009],"min":[0.004928932188134525,0.016000000000000414,0.007000000000000005],"type":"VEC3"},{"bufferView":0,"byteOffset":1848,"componentType":5126,"count":37,"max":[0.004628084782421988,0.0430000000000004,-0.00999999999999999],"min":[-0.004628084782421988,0.03800000000000035,-0.009999999999999994],"type":"VEC3"},{"bufferView":0,"byteOffset":2292,"componentType":5126,"count":55,"max":[0.0025,0.041745854715149379,-0.009999999999999994],"min":[-0.0025,0.03677588147648241,-0.011999999999999994],"type":"VEC3"},{"bufferView":0,"byteOffset":2952,"componentType":5126,"count":4,"max":[-0.006999999999999998,0.0380000000000004,0.00700000000000001],"min":[-0.011000000000000003,0.0340000000000004,-0.009999999999999994],"type":"VEC3"},{"bufferView":0,"byteOffset":3000,"componentType":5126,"count":4,"max":[-0.010999999999999998,0.0340000000000004,0.007000000000000009],"min":[-0.011000000000000003,0.020000000000000415,-0.009999999999999994],"type":"VEC3"},{"bufferView":0,"byteOffset":3048,"componentType":5126,"count":4,"max":[-0.006999999999999998,0.020000000000000418,0.007000000000000007],"min":[-0.011,0.016000000000000414,-0.009999999999999997],"type":"VEC3"},{"bufferView":0,"byteOffset":3096,"componentType":5126,"count":4,"max":[0.007,0.016000000000000418,0.007000000000000006],"min":[-0.007,0.016000000000000414,-0.009999999999999997],"type":"VEC3"},{"bufferView":0,"byteOffset":3144,"componentType":5126,"count":54,"max":[0.0035,0.025474481059343549,-0.009999999999999997],"min":[-0.0035,0.018525518940657166,-0.011999999999999997],"type":"VEC3"},{"bufferView":0,"byteOffset":3792,"componentType":5126,"count":54,"max":[0.0035,0.03547448105934354,-0.009999999999999994],"min":[-0.0035,0.028525518940657154,-0.011999999999999994],"type":"VEC3"},{"bufferView":0,"byteOffset":4440,"componentType":5126,"count":18,"max":[0.007,0.0380000000000004,0.012000000000000008],"min":[-0.007,0.0330000000000004,0.00700000000000001],"type":"VEC3"},{"bufferView":0,"byteOffset":4656,"componentType":5126,"count":4,"max":[-0.004628084782421987,0.039000000000000398,0.002829962000000009],"min":[-0.004628084782421988,0.0380000000000004,-0.009999999999999994],"type":"VEC3"},{"bufferView":0,"byteOffset":4704,"componentType":5126,"count":18,"max":[0.004628084782421988,0.0430000000000004,0.002829962000000012],"min":[-0.004628084782421988,0.0380000000000004,0.002829962000000009],"type":"VEC3"},{"bufferView":0,"byteOffset":4920,"componentType":5126,"count":4,"max":[0.004628084782421988,0.039000000000000398,0.002829962000000009],"min":[0.004628084782421987,0.0380000000000004,-0.009999999999999994],"type":"VEC3"},{"bufferView":0,"byteOffset":4968,"componentType":5126,"count":18,"max":[-0.004928932188134525,0.0380000000000004,0.012000000000000008],"min":[-0.011,0.03192893218813492,0.007000000000000009],"type":"VEC3"},{"bufferView":0,"byteOffset":5184,"componentType":5126,"count":18,"max":[-0.006000000000000001,0.0340000000000004,0.012000000000000009],"min":[-0.011,0.020000000000000415,0.007000000000000007],"type":"VEC3"},{"bufferView":0,"byteOffset":5400,"componentType":5126,"count":18,"max":[-0.004928932188134525,0.022071067811865885,0.012000000000000009],"min":[-0.011,0.016000000000000414,0.0070000000000000049],"type":"VEC3"},{"bufferView":0,"byteOffset":5616,"componentType":5126,"count":18,"max":[0.007,0.02100000000000041,0.012000000000000009],"min":[-0.007,0.016000000000000414,0.0070000000000000049],"type":"VEC3"},{"bufferView":0,"byteOffset":5832,"componentType":5126,"count":16,"max":[0.004628084782421988,0.0430000000000004,0.002829962000000012],"min":[0.0006280847824219882,0.039000000000000398,-0.009999999999999994],"type":"VEC3"},{"bufferView":0,"byteOffset":6024,"componentType":5126,"count":4,"max":[0.0006280847824219882,0.0430000000000004,0.002829962000000012],"min":[-0.0006280847824219882,0.0430000000000004,-0.009999999999999994],"type":"VEC3"},{"bufferView":0,"byteOffset":6072,"componentType":5126,"count":16,"max":[-0.0006280847824219882,0.0430000000000004,0.00282996200000001],"min":[-0.004628084782421988,0.039000000000000398,-0.009999999999999994],"type":"VEC3"},{"bufferView":0,"byteOffset":6264,"componentType":5126,"count":52,"max":[0.0025,0.04174088518524514,-0.011999999999999994],"min":[-0.0025,0.036777340814754869,-0.011999999999999994],"type":"VEC3"},{"bufferView":0,"byteOffset":6888,"componentType":5126,"count":52,"max":[0.0035,0.025474481059343545,-0.011999999999999997],"min":[-0.0035,0.01852551894065716,-0.011999999999999997],"type":"VEC3"},{"bufferView":0,"byteOffset":7512,"componentType":5126,"count":52,"max":[0.0035,0.03547448105934354,-0.011999999999999992],"min":[-0.0035,0.028525518940657157,-0.011999999999999995],"type":"VEC3"},{"bufferView":0,"byteOffset":8136,"componentType":5126,"count":55,"max":[0.002,0.041248803332927488,-0.009999999999999994],"min":[-0.0019999999999999998,0.037259113,-0.011999999999999994],"type":"VEC3"},{"bufferView":0,"byteOffset":8796,"componentType":5126,"count":54,"max":[0.003,0.024978126622294519,-0.009999999999999997],"min":[-0.003,0.019021873377706196,-0.011999999999999997],"type":"VEC3"},{"bufferView":0,"byteOffset":9444,"componentType":5126,"count":54,"max":[0.003,0.03497812662229452,-0.009999999999999994],"min":[-0.003,0.029021873377706187,-0.011999999999999994],"type":"VEC3"},{"bufferView":0,"byteOffset":10092,"componentType":5126,"count":55,"max":[0.002,0.041248803332927488,7.105427357601002e-18],"min":[-0.002,0.037259113,-0.009999999999999994],"type":"VEC3"},{"bufferView":0,"byteOffset":10752,"componentType":5126,"count":54,"max":[0.003,0.02497812662229452,3.552713678800501e-18],"min":[-0.003,0.019021873377706196,-0.009999999999999997],"type":"VEC3"},{"bufferView":0,"byteOffset":11400,"componentType":5126,"count":54,"max":[0.003,0.03497812662229452,5.3290705182007518e-18],"min":[-0.003,0.029021873377706187,-0.009999999999999994],"type":"VEC3"},{"bufferView":0,"byteOffset":12048,"componentType":5126,"count":26,"max":[0.002,0.041244530748196107,8.154877828169507e-18],"min":[-0.002,0.03727369525180389,7.273175229150806e-18],"type":"VEC3"},{"bufferView":0,"byteOffset":12360,"componentType":5126,"count":26,"max":[0.003,0.02497812662229452,4.8826205244982889e-18],"min":[-0.003,0.019021873377706199,1.5494553689640708e-18],"type":"VEC3"},{"bufferView":0,"byteOffset":12672,"componentType":5126,"count":26,"max":[0.003,0.03497812662229451,6.434436677314762e-18],"min":[-0.003,0.029021873377706187,5.111882778786712e-18],"type":"VEC3"},{"bufferView":1,"byteOffset":0,"componentType":5126,"count":4,"type":"VEC3"},{"bufferView":1,"byteOffset":48,"componentType":5126,"count":4,"type":"VEC3"},{"bufferView":1,"byteOffset":96,"componentType":5126,"count":18,"type":"VEC3"},{"bufferView":1,"byteOffset":312,"componentType":5126,"count":72,"type":"VEC3"},{"bufferView":1,"byteOffset":1176,"componentType":5126,"count":4,"type":"VEC3"},{"bufferView":1,"byteOffset":1224,"componentType":5126,"count":8,"type":"VEC3"},{"bufferView":1,"byteOffset":1320,"componentType":5126,"count":18,"type":"VEC3"},{"bufferView":1,"byteOffset":1536,"componentType":5126,"count":8,"type":"VEC3"},{"bufferView":1,"byteOffset":1632,"componentType":5126,"count":18,"type":"VEC3"},{"bufferView":1,"byteOffset":1848,"componentType":5126,"count":37,"type":"VEC3"},{"bufferView":1,"byteOffset":2292,"componentType":5126,"count":55,"type":"VEC3"},{"bufferView":1,"byteOffset":2952,"componentType":5126,"count":4,"type":"VEC3"},{"bufferView":1,"byteOffset":3000,"componentType":5126,"count":4,"type":"VEC3"},{"bufferView":1,"byteOffset":3048,"componentType":5126,"count":4,"type":"VEC3"},{"bufferView":1,"byteOffset":3096,"componentType":5126,"count":4,"type":"VEC3"},{"bufferView":1,"byteOffset":3144,"componentType":5126,"count":54,"type":"VEC3"},{"bufferView":1,"byteOffset":3792,"componentType":5126,"count":54,"type":"VEC3"},{"bufferView":1,"byteOffset":4440,"componentType":5126,"count":18,"type":"VEC3"},{"bufferView":1,"byteOffset":4656,"componentType":5126,"count":4,"type":"VEC3"},{"bufferView":1,"byteOffset":4704,"componentType":5126,"count":18,"type":"VEC3"},{"bufferView":1,"byteOffset":4920,"componentType":5126,"count":4,"type":"VEC3"},{"bufferView":1,"byteOffset":4968,"componentType":5126,"count":18,"type":"VEC3"},{"bufferView":1,"byteOffset":5184,"componentType":5126,"count":18,"type":"VEC3"},{"bufferView":1,"byteOffset":5400,"componentType":5126,"count":18,"type":"VEC3"},{"bufferView":1,"byteOffset":5616,"componentType":5126,"count":18,"type":"VEC3"},{"bufferView":1,"byteOffset":5832,"componentType":5126,"count":16,"type":"VEC3"},{"bufferView":1,"byteOffset":6024,"componentType":5126,"count":4,"type":"VEC3"},{"bufferView":1,"byteOffset":6072,"componentType":5126,"count":16,"type":"VEC3"},{"bufferView":1,"byteOffset":6264,"componentType":5126,"count":52,"type":"VEC3"},{"bufferView":1,"byteOffset":6888,"componentType":5126,"count":52,"type":"VEC3"},{"bufferView":1,"byteOffset":7512,"componentType":5126,"count":52,"type":"VEC3"},{"bufferView":1,"byteOffset":8136,"componentType":5126,"count":55,"type":"VEC3"},{"bufferView":1,"byteOffset":8796,"componentType":5126,"count":54,"type":"VEC3"},{"bufferView":1,"byteOffset":9444,"componentType":5126,"count":54,"type":"VEC3"},{"bufferView":1,"byteOffset":10092,"componentType":5126,"count":55,"type":"VEC3"},{"bufferView":1,"byteOffset":10752,"componentType":5126,"count":54,"type":"VEC3"},{"bufferView":1,"byteOffset":11400,"componentType":5126,"count":54,"type":"VEC3"},{"bufferView":1,"byteOffset":12048,"componentType":5126,"count":26,"type":"VEC3"},{"bufferView":1,"byteOffset":12360,"componentType":5126,"count":26,"type":"VEC3"},{"bufferView":1,"byteOffset":12672,"componentType":5126,"count":26,"type":"VEC3"},{"bufferView":2,"byteOffset":0,"componentType":5123,"count":6,"type":"SCALAR"},{"bufferView":2,"byteOffset":12,"componentType":5123,"count":6,"type":"SCALAR"},{"bufferView":2,"byteOffset":24,"componentType":5123,"count":48,"type":"SCALAR"},{"bufferView":2,"byteOffset":120,"componentType":5123,"count":222,"type":"SCALAR"},{"bufferView":2,"byteOffset":564,"componentType":5123,"count":6,"type":"SCALAR"},{"bufferView":2,"byteOffset":576,"componentType":5123,"count":18,"type":"SCALAR"},{"bufferView":2,"byteOffset":612,"componentType":5123,"count":48,"type":"SCALAR"},{"bufferView":2,"byteOffset":708,"componentType":5123,"count":18,"type":"SCALAR"},{"bufferView":2,"byteOffset":744,"componentType":5123,"count":48,"type":"SCALAR"},{"bufferView":2,"byteOffset":840,"componentType":5123,"count":105,"type":"SCALAR"},{"bufferView":2,"byteOffset":1052,"componentType":5123,"count":159,"type":"SCALAR"},{"bufferView":2,"byteOffset":1372,"componentType":5123,"count":6,"type":"SCALAR"},{"bufferView":2,"byteOffset":1384,"componentType":5123,"count":6,"type":"SCALAR"},{"bufferView":2,"byteOffset":1396,"componentType":5123,"count":6,"type":"SCALAR"},{"bufferView":2,"byteOffset":1408,"componentType":5123,"count":6,"type":"SCALAR"},{"bufferView":2,"byteOffset":1420,"componentType":5123,"count":156,"type":"SCALAR"},{"bufferView":2,"byteOffset":1732,"componentType":5123,"count":156,"type":"SCALAR"},{"bufferView":2,"byteOffset":2044,"componentType":5123,"count":48,"type":"SCALAR"},{"bufferView":2,"byteOffset":2140,"componentType":5123,"count":6,"type":"SCALAR"},{"bufferView":2,"byteOffset":2152,"componentType":5123,"count":48,"type":"SCALAR"},{"bufferView":2,"byteOffset":2248,"componentType":5123,"count":6,"type":"SCALAR"},{"bufferView":2,"byteOffset":2260,"componentType":5123,"count":48,"type":"SCALAR"},{"bufferView":2,"byteOffset":2356,"componentType":5123,"count":48,"type":"SCALAR"},{"bufferView":2,"byteOffset":2452,"componentType":5123,"count":48,"type":"SCALAR"},{"bufferView":2,"byteOffset":2548,"componentType":5123,"count":48,"type":"SCALAR"},{"bufferView":2,"byteOffset":2644,"componentType":5123,"count":42,"type":"SCALAR"},{"bufferView":2,"byteOffset":2728,"componentType":5123,"count":6,"type":"SCALAR"},{"bufferView":2,"byteOffset":2740,"componentType":5123,"count":42,"type":"SCALAR"},{"bufferView":2,"byteOffset":2824,"componentType":5123,"count":156,"type":"SCALAR"},{"bufferView":2,"byteOffset":3136,"componentType":5123,"count":156,"type":"SCALAR"},{"bufferView":2,"byteOffset":3448,"componentType":5123,"count":156,"type":"SCALAR"},{"bufferView":2,"byteOffset":3760,"componentType":5123,"count":159,"type":"SCALAR"},{"bufferView":2,"byteOffset":4080,"componentType":5123,"count":156,"type":"SCALAR"},{"bufferView":2,"byteOffset":4392,"componentType":5123,"count":156,"type":"SCALAR"},{"bufferView":2,"byteOffset":4704,"componentType":5123,"count":159,"type":"SCALAR"},{"bufferView":2,"byteOffset":5024,"componentType":5123,"count":156,"type":"SCALAR"},{"bufferView":2,"byteOffset":5336,"componentType":5123,"count":156,"type":"SCALAR"},{"bufferView":2,"byteOffset":5648,"componentType":5123,"count":72,"type":"SCALAR"},{"bufferView":2,"byteOffset":5792,"componentType":5123,"count":72,"type":"SCALAR"},{"bufferView":2,"byteOffset":5936,"componentType":5123,"count":72,"type":"SCALAR"}],"asset":{"generator":"Open CASCADE Technology 7.6 [dev.opencascade.org]","version":"2.0"},"bufferViews":[{"buffer":0,"byteLength":12984,"byteOffset":0,"byteStride":12,"target":34962},{"buffer":0,"byteLength":12984,"byteOffset":12984,"byteStride":12,"target":34962},{"buffer":0,"byteLength":6080,"byteOffset":25968,"target":34963}],"buffers":[{"byteLength":32048,"uri":"cutemark-Head.bin"}],"materials":[{"name":"mat_0","pbrMetallicRoughness":{"baseColorFactor":[0.0,0.4019778072834015,0.0,1.0]},"doubleSided":true}],"meshes":[{"name":"Head","primitives":[{"attributes":{"NORMAL":40,"POSITION":0},"indices":80,"material":0,"mode":4},{"attributes":{"NORMAL":41,"POSITION":1},"indices":81,"material":0,"mode":4},{"attributes":{"NORMAL":42,"POSITION":2},"indices":82,"material":0,"mode":4},{"attributes":{"NORMAL":43,"POSITION":3},"indices":83,"material":0,"mode":4},{"attributes":{"NORMAL":44,"POSITION":4},"indices":84,"material":0,"mode":4},{"attributes":{"NORMAL":45,"POSITION":5},"indices":85,"material":0,"mode":4},{"attributes":{"NORMAL":46,"POSITION":6},"indices":86,"material":0,"mode":4},{"attributes":{"NORMAL":47,"POSITION":7},"indices":87,"material":0,"mode":4},{"attributes":{"NORMAL":48,"POSITION":8},"indices":88,"material":0,"mode":4},{"attributes":{"NORMAL":49,"POSITION":9},"indices":89,"material":0,"mode":4},{"attributes":{"NORMAL":50,"POSITION":10},"indices":90,"material":0,"mode":4},{"attributes":{"NORMAL":51,"POSITION":11},"indices":91,"material":0,"mode":4},{"attributes":{"NORMAL":52,"POSITION":12},"indices":92,"material":0,"mode":4},{"attributes":{"NORMAL":53,"POSITION":13},"indices":93,"material":0,"mode":4},{"attributes":{"NORMAL":54,"POSITION":14},"indices":94,"material":0,"mode":4},{"attributes":{"NORMAL":55,"POSITION":15},"indices":95,"material":0,"mode":4},{"attributes":{"NORMAL":56,"POSITION":16},"indices":96,"material":0,"mode":4},{"attributes":{"NORMAL":57,"POSITION":17},"indices":97,"material":0,"mode":4},{"attributes":{"NORMAL":58,"POSITION":18},"indices":98,"material":0,"mode":4},{"attributes":{"NORMAL":59,"POSITION":19},"indices":99,"material":0,"mode":4},{"attributes":{"NORMAL":60,"POSITION":20},"indices":100,"material":0,"mode":4},{"attributes":{"NORMAL":61,"POSITION":21},"indices":101,"material":0,"mode":4},{"attributes":{"NORMAL":62,"POSITION":22},"indices":102,"material":0,"mode":4},{"attributes":{"NORMAL":63,"POSITION":23},"indices":103,"material":0,"mode":4},{"attributes":{"NORMAL":64,"POSITION":24},"indices":104,"material":0,"mode":4},{"attributes":{"NORMAL":65,"POSITION":25},"indices":105,"material":0,"mode":4},{"attributes":{"NORMAL":66,"POSITION":26},"indices":106,"material":0,"mode":4},{"attributes":{"NORMAL":67,"POSITION":27},"indices":107,"material":0,"mode":4},{"attributes":{"NORMAL":68,"POSITION":28},"indices":108,"material":0,"mode":4},{"attributes":{"NORMAL":69,"POSITION":29},"indices":109,"material":0,"mode":4},{"attributes":{"NORMAL":70,"POSITION":30},"indices":110,"material":0,"mode":4},{"attributes":{"NORMAL":71,"POSITION":31},"indices":111,"material":0,"mode":4},{"attributes":{"NORMAL":72,"POSITION":32},"indices":112,"material":0,"mode":4},{"attributes":{"NORMAL":73,"POSITION":33},"indices":113,"material":0,"mode":4},{"attributes":{"NORMAL":74,"POSITION":34},"indices":114,"material":0,"mode":4},{"attributes":{"NORMAL":75,"POSITION":35},"indices":115,"material":0,"mode":4},{"attributes":{"NORMAL":76,"POSITION":36},"indices":116,"material":0,"mode":4},{"attributes":{"NORMAL":77,"POSITION":37},"indices":117,"material":0,"mode":4},{"attributes":{"NORMAL":78,"POSITION":38},"indices":118,"material":0,"mode":4},{"attributes":{"NORMAL":79,"POSITION":39},"indices":119,"material":0,"mode":4}]}],"nodes":[{"mesh":0,"name":"Head"}],"scene":0,"scenes":[{"nodes":[0]}]}